PathFileType  4	(X/Y/Z) C:\Users\antoi\Documents\MyRepositories\mobilecap\ResultsAnalysis
DataRate	CameraRate	NumFrames	NumMarkers	Units	OrigDataRate	OrigDataStartFrame	OrigNumFrames
100.0	100.0	4	51	mm	100.0	161	257
Frame#	Time	r_knee			r_shank_antsup			r_ankle			r_calc			r_5meta			r_toe			L_knee			L_shank_antsup			L_ankle			L_calc			L_5meta			L_toe			r_sh2			r_sh3			r_sh4			L_sh2			L_sh3			r_thigh1			r_thigh2			r_thigh3			r_thigh4			r_thigh5			L_thigh1			L_thigh2			L_thigh3			L_thigh4			r.ASIS			r.PSIS			L.ASIS			L.PSIS			C7			R_Shoulder			L_Shoulder			R_Sternum			L_Sternum			R_humerus			R_elbow_med			R_elbow_lat			R_forearm			R_wrist_radius			R_wrist_ulna			L_humerus			L_elbow_med			L_elbow_lat			L_forearm			L_wrist_radius			L_wrist_ulna			R_HJC			L_HJC			R_HJC_reg			L_HJC_reg			
		X1	Y1	Z1	X2	Y2	Z2	X3	Y3	Z3	X4	Y4	Z4	X5	Y5	Z5	X6	Y6	Z6	X7	Y7	Z7	X8	Y8	Z8	X9	Y9	Z9	X10	Y10	Z10	X11	Y11	Z11	X12	Y12	Z12	X13	Y13	Z13	X14	Y14	Z14	X15	Y15	Z15	X16	Y16	Z16	X17	Y17	Z17	X18	Y18	Z18	X19	Y19	Z19	X20	Y20	Z20	X21	Y21	Z21	X22	Y22	Z22	X23	Y23	Z23	X24	Y24	Z24	X25	Y25	Z25	X26	Y26	Z26	X27	Y27	Z27	X28	Y28	Z28	X29	Y29	Z29	X30	Y30	Z30	X31	Y31	Z31	X32	Y32	Z32	X33	Y33	Z33	X34	Y34	Z34	X35	Y35	Z35	X36	Y36	Z36	X37	Y37	Z37	X38	Y38	Z38	X39	Y39	Z39	X40	Y40	Z40	X41	Y41	Z41	X42	Y42	Z42	X43	Y43	Z43	X44	Y44	Z44	X45	Y45	Z45	X46	Y46	Z46	X47	Y47	Z47	X48	Y48	Z48	X49	Y49	Z49	X50	Y50	Z50	X51	Y51	Z51	

161	1.60000000	-65.65841	542.36921	-312.53840	-68.50713	401.60731	-298.15795	-298.27000	118.83479	-290.33592	-354.87235	87.90669	-355.85596	-187.79786	45.61193	-228.47433	-136.63335	65.60660	-272.26014	-50.18345	516.60433	-807.00986	-77.24981	327.31103	-811.49384	-314.68307	131.55839	-832.78664	-379.92405	94.17600	-769.38674	-209.47076	41.42824	-900.15575	-155.05563	63.24897	-846.59804	-123.48903	302.89803	-299.90047	-131.87150	433.51471	-273.94972	-190.03753	337.40290	-265.83649	-132.26424	379.55336	-857.08715	-206.82950	286.44908	-849.60726	-317.03912	675.61109	-343.31054	-210.09549	652.49962	-323.12590	-205.22976	584.94938	-308.92292	-344.14614	564.47209	-354.84217	-229.71670	538.88452	-331.15408	-281.99347	689.47747	-765.99262	-156.71488	643.55653	-784.74485	-328.71227	593.97715	-794.13102	-200.00133	550.61397	-822.90454	-353.79195	726.51509	-421.84221	-515.66995	813.32492	-528.84738	-343.63478	710.45410	-692.64893	-507.30946	813.34153	-619.59953	-86.46914	1087.43420	-576.91703	-42.44329	1015.70660	-418.54027	-43.08180	1007.64845	-726.05021	-49.30850	924.20761	-539.67128	-46.68272	918.53923	-587.06559	66.52975	841.25865	-315.21091	75.62363	682.29231	-289.17572	92.54498	741.65370	-226.99554	262.97038	799.27617	-348.06814	325.08125	821.42774	-401.72161	347.59413	801.59142	-377.63260	95.47627	808.90782	-781.37867	73.26013	672.53462	-803.55283	127.28395	722.89920	-847.45106	263.34922	778.42534	-701.17713	296.45646	797.45616	-641.84840	319.99502	781.55429	-660.54722	-459.73365	662.29659	-462.95008	-452.65850	655.74149	-660.19068	-448.31844	661.14962	-469.13581	-431.88195	661.18227	-647.55248	
162	1.61000000	-63.63917	542.58013	-313.77419	-67.08865	401.89195	-298.83592	-297.66474	119.62551	-290.69508	-354.38443	88.91308	-356.29746	-187.63676	45.87795	-228.59434	-136.38986	65.65675	-272.37539	-48.02086	516.55626	-804.39246	-76.07880	327.47836	-809.71577	-314.09266	132.51777	-832.20342	-379.31746	95.14709	-768.86344	-209.30056	41.80428	-900.02041	-154.88475	63.29679	-846.40781	-122.64207	303.05087	-300.54761	-130.53840	434.12422	-275.07258	-189.11618	338.39217	-266.74000	-130.98342	380.16482	-854.97399	-205.81277	287.34094	-848.00027	-313.76815	678.23928	-344.05609	-206.93661	654.19263	-324.14746	-202.56001	586.60528	-309.69219	-341.83177	567.23249	-355.22321	-227.58761	540.77062	-331.83688	-278.25320	691.92440	-764.70309	-153.15613	644.69689	-782.91925	-325.70095	596.63877	-793.23238	-197.06726	552.26806	-821.46819	-351.25988	730.05534	-421.66995	-513.37537	817.26729	-528.60637	-341.11932	714.78070	-692.81361	-504.99970	817.43697	-619.56106	-85.24675	1092.62267	-576.64885	-40.13524	1021.90116	-419.05532	-41.08112	1014.05714	-725.24515	-47.36632	929.69023	-539.40370	-44.45229	924.35352	-586.85698	70.73398	847.32798	-319.41095	80.49183	688.15503	-295.48506	97.58022	746.68422	-232.29103	265.05510	808.88119	-355.09304	326.31937	833.19441	-408.48553	348.99366	813.16742	-385.43902	97.52227	814.45797	-777.70180	75.43793	677.91685	-798.20568	129.42095	727.74638	-842.86396	264.75048	785.94685	-696.08214	297.44140	806.29133	-637.60789	320.95426	790.03292	-656.07652	-457.29578	665.98825	-463.15877	-450.18633	659.96016	-660.41502	-445.91313	664.92364	-469.14006	-429.46563	665.25700	-647.74753	
163	1.62000000	-61.69599	542.97189	-314.97985	-65.85293	402.36051	-299.57152	-296.83432	120.70531	-290.73756	-353.81003	90.06179	-356.60466	-187.52965	46.01392	-228.64211	-136.16935	65.71487	-272.52238	-45.89190	516.75553	-801.58936	-74.89395	327.83767	-807.96464	-313.34428	133.61252	-831.64911	-378.67488	96.16658	-768.22170	-209.10512	42.22870	-899.95306	-154.67547	63.37006	-846.27739	-121.88638	303.46211	-301.26389	-129.36464	434.91223	-276.19281	-188.31881	339.40310	-267.86118	-129.79947	381.08607	-852.69715	-204.88779	288.53650	-846.44084	-310.46932	681.94783	-344.64584	-203.57827	656.35408	-325.09937	-199.86694	588.79280	-310.45488	-339.50957	570.97874	-355.35921	-225.41559	543.10081	-332.51876	-274.20560	694.87657	-763.50553	-149.47421	646.16560	-780.91076	-322.51647	600.05425	-792.31265	-194.17525	554.25852	-819.83767	-348.70231	734.40383	-421.55802	-511.09672	822.17564	-528.44344	-338.42075	720.14530	-692.83322	-502.59274	822.54621	-619.53644	-84.56797	1099.35627	-576.37957	-38.04537	1029.59344	-419.48653	-39.38266	1022.01035	-724.47909	-45.47030	936.85817	-539.28874	-43.09402	931.29311	-587.25945	74.50903	854.71619	-323.11328	84.25138	695.36527	-301.04766	101.64919	753.26184	-236.53349	266.08570	819.28985	-361.15918	326.40259	845.29241	-414.80632	349.38670	825.05788	-392.67886	99.19713	821.31802	-774.94123	76.89351	684.80111	-793.77796	130.82202	734.05590	-839.23143	264.94637	794.61708	-691.92844	297.45302	815.98740	-634.11720	321.08087	799.44436	-652.31391	-454.87091	670.56457	-463.46838	-447.57311	665.20590	-660.73755	-443.50765	669.65000	-469.32934	-426.83110	670.37627	-647.96807	
164	1.63000000	-59.87224	543.41126	-316.06176	-64.88331	402.82107	-300.48157	-296.08584	121.61143	-291.07194	-353.17654	91.12964	-357.03219	-187.47832	46.13954	-228.73256	-135.94890	65.80046	-272.67738	-43.89294	517.13545	-798.86682	-73.91896	328.27510	-806.27151	-312.62196	134.58835	-831.02062	-378.06465	97.14107	-767.66562	-208.94966	42.62261	-899.91857	-154.40290	63.47261	-846.20269	-121.06410	304.05986	-301.98986	-128.35600	435.60648	-277.44968	-187.74227	340.27851	-269.04289	-128.80326	382.14506	-850.40075	-204.12555	289.72630	-844.85679	-306.95669	686.30671	-344.96681	-200.17463	658.63472	-325.93652	-197.22039	591.15522	-311.19293	-337.07823	575.02632	-356.02569	-223.15309	545.36663	-333.55101	-269.85556	698.18974	-762.03972	-145.66142	647.73336	-778.51472	-319.18602	604.21610	-791.44906	-191.37849	556.49440	-817.93484	-345.96151	739.45829	-421.27514	-508.84670	828.01366	-528.39467	-335.54039	726.43975	-692.67437	-500.09420	828.59574	-619.55152	-84.30735	1107.51700	-576.12423	-36.17494	1038.64311	-419.95754	-37.84079	1031.25379	-723.65948	-43.62261	945.59840	-539.14235	-41.48182	939.97807	-587.39727	77.79661	863.58604	-325.81178	87.55911	704.15701	-305.17676	105.35982	761.60770	-239.62188	266.49095	830.86060	-366.31700	325.73586	858.03739	-420.71735	349.34370	837.63918	-399.51454	100.63527	829.74963	-773.22585	78.21828	693.32349	-790.51235	132.00075	742.09390	-836.46532	264.70920	805.11070	-689.10723	296.96677	826.88252	-631.35244	320.79198	810.10430	-649.31598	-452.42244	675.98124	-463.79388	-444.79231	671.36887	-661.06871	-441.09003	675.22083	-469.49864	-423.93842	676.36127	-648.13478	
